<?xml version="1.0" encoding="utf-8"?>
<!-- Generator: Adobe Illustrator 21.0.0, SVG Export Plug-In . SVG Version: 6.00 Build 0)  -->
<svg version="1.1" id="Capa_1" xmlns="http://www.w3.org/2000/svg" xmlns:xlink="http://www.w3.org/1999/xlink" x="0px" y="0px"
	 viewBox="0 0 24 24" style="enable-background:new 0 0 24 24;" xml:space="preserve">
<style type="text/css">
	.st0{display:none;}
	.st1{display:inline;fill:#FFFFFF;}
	.st2{fill:#FFFFFF;stroke:#FFFFFF;stroke-miterlimit:10;}
</style>
<path d="M9.6,2.4H2.4C1.1,2.4,0,3.5,0,4.8l0,14.4c0,1.3,1.1,2.4,2.4,2.4h19.2c1.3,0,2.4-1.1,2.4-2.4v-12c0-1.3-1.1-2.4-2.4-2.4H12
	L9.6,2.4z"/>
<g class="st0">
	<path class="st1" d="M14,18c1.5,0,2.7-1.2,2.7-2.7s-1.2-2.7-2.7-2.7c-1.5,0-2.7,1.2-2.7,2.7S12.5,18,14,18z M14,13.1
		c1.2,0,2.2,1,2.2,2.2c0,1.2-1,2.2-2.2,2.2c-0.5,0-0.9-0.1-1.3-0.4c0,0,0,0,0,0c0.1-0.1,0.2-0.3,0.2-0.4c0-0.3-0.2-0.5-0.5-0.5
		c-0.2,0-0.3,0.1-0.4,0.2c0,0,0,0,0,0c0-0.1-0.1-0.2-0.1-0.3c0,0,0,0,0,0c0,0,0.1,0,0.1,0c0.4,0,0.7-0.3,0.7-0.7
		c0-0.4-0.3-0.7-0.7-0.7c0,0-0.1,0-0.1,0c-0.1,0-0.1,0-0.1-0.1C12.2,13.7,13,13.1,14,13.1z"/>
	<path class="st1" d="M14,16c-0.3,0-0.6,0.3-0.6,0.6c0,0.3,0.3,0.6,0.6,0.6c0.3,0,0.6-0.3,0.6-0.6C14.6,16.2,14.3,16,14,16z"/>
	<path class="st1" d="M15.2,16.3c0.2,0,0.4-0.2,0.4-0.4s-0.2-0.4-0.4-0.4c-0.2,0-0.4,0.2-0.4,0.4C14.8,16.1,14.9,16.3,15.2,16.3z"/>
	<path class="st1" d="M13.7,15.5c0.2,0,0.4-0.2,0.4-0.4c0-0.2-0.2-0.4-0.4-0.4c-0.2,0-0.4,0.2-0.4,0.4
		C13.3,15.3,13.5,15.5,13.7,15.5z"/>
	<path class="st1" d="M14.4,14.4c0.2,0,0.3-0.1,0.3-0.3c0-0.2-0.1-0.3-0.3-0.3c-0.2,0-0.3,0.1-0.3,0.3
		C14.1,14.2,14.3,14.4,14.4,14.4z"/>
	<path class="st1" d="M16.3,17.6c-0.6,0.6-1.4,1-2.3,1c-1.8,0-3.3-1.5-3.3-3.3c0-0.7,0.2-1.4,0.7-2c0.1-0.1,0.1-0.3,0-0.3
		c-0.1-0.1-0.3-0.1-0.3,0c-0.5,0.7-0.8,1.4-0.8,2.3c0,2.1,1.7,3.7,3.7,3.7c1,0,2-0.4,2.7-1.1c0.1-0.1,0.1-0.2,0-0.3
		C16.5,17.5,16.4,17.5,16.3,17.6z"/>
	<path class="st1" d="M20.3,12.5c-0.1-0.2-0.4-0.1-0.7,0c-0.2,0.1-0.5,0.2-0.8,0.3c-0.1,0-0.2,0.1-0.4,0.1c0,0-0.1,0,0-0.1
		c0.2-0.2,0.3-0.4,0.5-0.7c0.2-0.2,0.4-0.5,0.5-0.7c0.2-0.3,0.3-0.4,0.2-0.6c-0.1-0.2-0.3-0.1-0.5-0.1c-0.1,0-0.3,0.1-0.5,0.1
		c-0.1,0-0.3,0.1-0.4,0.1c0,0-0.1,0,0-0.1c0.2-0.2,0.3-0.5,0.5-0.8c0.2-0.3,0.5-0.7,0.6-0.9c0.2-0.4,0.4-0.6,0.2-0.8
		c-0.2-0.2-0.4,0-0.5,0.1c-0.1,0.1-0.3,0.2-0.6,0.4c-0.4,0.3-1,0.7-1.5,1.1c-0.3,0.2-0.6,0.4-0.8,0.6c0,0-0.1,0,0,0
		c0.1-0.2,0.1-0.4,0.2-0.6c0.1-0.4,0.3-0.8,0.4-1.1c0.2-0.5,0.2-0.7,0-0.8c-0.2-0.1-0.4,0-0.8,0.4c-0.3,0.2-0.6,0.5-1.1,1
		c-0.8,0.7-1.7,1.6-2.2,2.1c-0.1,0.1-0.1,0.2,0,0.3c0.1,0.1,0.2,0.1,0.3,0c1.1-1,2.4-2.3,3.2-2.9c0.1-0.1,0.1,0,0.1,0
		c-0.1,0.3-0.2,0.6-0.3,0.9c-0.1,0.3-0.2,0.6-0.3,0.9c-0.1,0.4-0.2,0.6,0,0.7c0.1,0.1,0.3,0,0.4,0c0.1-0.1,0.2-0.1,0.3-0.2
		c0.3-0.2,0.6-0.5,1-0.8c0.5-0.4,0.9-0.7,1.4-1c0.1-0.1,0.1,0,0,0c-0.1,0.2-0.3,0.4-0.4,0.5c-0.2,0.3-0.4,0.6-0.6,0.8
		c-0.2,0.3-0.3,0.5-0.2,0.7c0.2,0.2,0.4,0.1,1.2-0.1c0,0,0,0,0.1,0c0.1,0,0,0,0,0c-0.1,0.1-0.2,0.3-0.4,0.4
		c-0.2,0.3-0.5,0.6-0.6,0.8c-0.3,0.4-0.4,0.5-0.3,0.7c0.1,0.2,0.4,0.1,0.6,0.1c0.2-0.1,0.4-0.1,0.7-0.2c0.2-0.1,0.4-0.1,0.6-0.2
		c0.1,0,0.1,0,0.1,0c-0.4,0.7-1.4,2-2,2.7c-0.1,0.1-0.1,0.2,0,0.3c0,0,0.1,0.1,0.2,0.1c0.1,0,0.1,0,0.2-0.1c0.3-0.4,0.9-1.1,1.5-1.9
		c0.3-0.4,0.5-0.7,0.6-0.9C20.3,12.8,20.4,12.6,20.3,12.5z"/>
</g>
<g>
	<path class="st2" d="M18.6,12.1C18.5,11.6,21,7.5,21,7.5s-5.7,3.4-6.2,3.4c0,0,0,0,0,0c-0.5-0.2,0.1-1.3,0.1-1.3l-4.2,3.6
		c0,0-0.1,0.1-0.2,0.2c-1.3,1.3-1.3,3.4,0,4.8c0.7,0.7,1.5,1,2.4,1c0.9,0,1.7-0.3,2.4-1c0.1-0.1,0.4-0.5,0.4-0.5l4-5.3
		c0,0-0.1,0-0.3,0C19,12.3,18.7,12.3,18.6,12.1z M15.2,17.3c-0.1,0.1-0.3,0.3-0.3,0.4c-0.5,0.5-1.3,0.8-2,0.8c-0.8,0-1.5-0.3-2-0.8
		c-0.5-0.5-0.8-1.3-0.8-2c0-0.8,0.3-1.5,0.8-2c0,0,0.1-0.1,0.2-0.1l0,0l3.2-2.7c0,0,0,0,0,0c0.1,0.2,0.2,0.4,0.4,0.5
		c0.1,0,0.2,0.1,0.2,0.1c0.2,0,0.4,0,3.5-1.8c0.5-0.3,0.9-0.5,1.3-0.8c-0.1,0.2-0.2,0.3-0.3,0.5c-1.3,2.3-1.3,2.6-1.2,2.8
		c0,0.2,0.2,0.4,0.5,0.5L15.2,17.3z"/>
	<path class="st2" d="M12.8,13.3c-0.6,0-1.2,0.2-1.7,0.7c-0.9,0.9-0.9,2.5,0,3.4c0.5,0.5,1.1,0.7,1.7,0.7c0.6,0,1.2-0.2,1.7-0.7
		c0.9-0.9,0.9-2.5,0-3.4C14.1,13.5,13.5,13.3,12.8,13.3z M14.2,17c-0.4,0.4-0.8,0.6-1.4,0.6c-0.5,0-1-0.2-1.4-0.6
		c-0.4-0.4-0.6-0.8-0.6-1.4c0-0.5,0.2-1,0.6-1.4c0.4-0.4,0.8-0.6,1.4-0.6c0.5,0,1,0.2,1.4,0.6c0.4,0.4,0.6,0.8,0.6,1.4
		C14.8,16.2,14.6,16.7,14.2,17z"/>
</g>
</svg>
